<svg width="49" height="66" viewBox="0 0 49 66" fill="none" xmlns="http://www.w3.org/2000/svg">
<path d="M12.5964 3.70343C12.5964 1.59894 14.2474 0 16.4157 0C18.4688 0 20.1542 1.66915 20.1521 3.6934C20.1501 5.75778 18.3698 7.5132 16.2965 7.49915C14.2454 7.4831 12.5944 5.78988 12.5964 3.70343Z" fill="#2895C0"/>
<path d="M35.7533 3.73353C35.7533 5.79389 34.0497 7.51119 32.0148 7.49915C29.9819 7.48712 28.2481 5.74173 28.2198 3.67936C28.1935 1.66314 29.8809 0 31.9582 0C34.1083 0 35.7533 1.61499 35.7533 3.73353Z" fill="#2895C0"/>
<path d="M25.1812 29.2864C25.0822 29.3486 24.9771 29.4047 24.866 29.4589C24.7973 29.8381 24.8357 30.2092 24.67 30.3697C24.6316 30.4058 24.5831 30.4379 24.5245 30.466C24.4295 30.4981 24.3244 30.5142 24.2193 30.5142C24.0051 30.5142 23.8071 30.446 23.6454 30.3336C23.4999 30.1169 23.5585 29.8281 23.795 29.5713C23.5969 29.487 23.4171 29.3967 23.2554 29.2984C22.2996 28.7246 21.9419 27.9242 22.1339 26.8448C22.2895 25.9701 23.211 25.2319 24.1809 25.2078C25.1913 25.1817 26.0239 25.8277 26.2826 26.8348C26.5372 27.8299 26.1068 28.7186 25.1812 29.2884V29.2864Z" fill="#7CB92E"/>
<path d="M48.4291 10.1855C48.2614 10.2738 48.1058 10.3521 47.9522 10.4343C46.5417 11.2007 45.0908 11.4856 43.4944 11.0101C42.7568 10.7914 41.9525 10.7192 41.1785 10.7192C40.5764 10.7192 40.0368 10.9479 39.6266 11.313C41.4029 13.2269 42.6962 15.4217 43.2741 18.0017C43.2862 18.0579 43.2983 18.114 43.3085 18.1702C44.8725 18.4109 46.4144 17.6205 46.9418 16.2443C45.214 16.3024 44.4057 16.0256 43.8419 15.185C46.8751 14.7878 48.7403 12.7735 48.4291 10.1855Z" fill="#2895C0"/>
<path d="M8.77737 11.2847C8.45404 11.0059 8.0418 10.8173 7.55479 10.7491C6.87985 10.6548 6.13014 10.719 5.47339 10.9096C3.59204 11.4593 1.83598 11.365 0.191061 10.2315C0.152667 10.2054 0.0819391 10.2275 0.00312862 10.2275C-0.0332455 11.373 0.245622 12.4222 0.940771 13.321C1.85012 14.4987 3.03834 15.1948 4.66911 15.1447C3.72339 16.1919 2.60388 16.3785 1.36514 16.218C2.03806 17.5922 3.45058 18.3967 4.80249 18.2041C4.88938 18.1921 4.97627 18.176 5.06115 18.16C5.47945 16.0835 6.46357 14.2138 7.77506 12.4824C8.09232 12.0631 8.42575 11.6619 8.77737 11.2827V11.2847Z" fill="#2895C0"/>
<path d="M42.5458 18.0023C41.9679 15.4223 40.6746 13.2275 38.8983 11.3136C38.7569 11.1611 38.6134 11.0107 38.4659 10.8622C36.7704 9.15094 34.7375 8.28225 32.2924 8.38056C30.2574 8.46081 28.6267 9.70264 28.0993 11.6486C27.7719 12.8564 28.2387 13.6809 29.4512 14.034C30.799 14.4272 31.9488 13.8354 32.7369 12.3428C33.5634 12.6678 33.8201 13.1794 33.5432 13.9819C33.2381 14.8586 32.6157 15.4725 31.8155 15.9018C30.2958 16.7163 28.7014 16.7464 27.0788 16.2729C26.2017 16.0161 25.3288 15.8215 24.4113 16.0583C24.28 16.0924 24.1244 16.0904 23.993 16.0543C23.1382 15.8296 22.3138 15.98 21.4994 16.2348C20.3637 16.5899 19.2078 16.7023 18.0499 16.4194C16.6455 16.0763 15.4653 15.4063 14.95 13.9518C14.6671 13.1513 14.9621 12.6096 15.7988 12.3649C16.1201 13.3158 16.7889 13.8795 17.7731 14.0902C19.3129 14.4212 20.5031 13.4121 20.293 11.9536C20.0586 10.3226 18.6339 8.82593 17.0052 8.51297C15.6512 8.25417 14.3276 8.36651 13.0323 8.84198C11.6137 9.36359 10.4821 10.2303 9.50199 11.2855C9.15038 11.6647 8.81897 12.0659 8.49969 12.4852C7.18618 14.2166 6.20408 16.0863 5.78578 18.1628C5.67261 18.7225 5.59784 19.2963 5.57157 19.8881C5.42204 23.2886 6.78808 26.1394 8.99074 28.6511C11.256 31.2371 14.2508 32.7558 17.2921 34.2003C17.4194 34.2605 17.6457 34.2324 17.7731 34.1581C19.5938 33.0868 21.4064 31.9995 23.211 30.9222C22.922 30.7316 22.5583 30.4808 22.1864 30.2481C20.4021 29.1306 18.5692 28.0814 16.8374 26.8877C14.3357 25.1624 13.194 22.7911 13.8103 19.7396C13.877 19.4046 13.7982 19.2622 13.5779 19.0395C12.9878 18.4456 12.4463 17.8037 11.8865 17.1797C11.929 17.1436 11.9714 17.1075 12.0138 17.0694C15.043 19.5591 18.355 20.1529 22.0046 18.554C22.1662 18.4838 22.3825 18.5239 22.5744 18.5259C23.6313 18.5339 24.6862 18.5419 25.743 18.562C26.0461 18.568 26.3796 18.5399 26.6463 18.6523C29.0652 19.6754 31.4942 19.7356 33.8949 18.6643C34.8487 18.239 35.7136 17.6211 36.6209 17.0915C36.6431 17.1015 36.6653 17.1115 36.6876 17.1215C36.0288 17.8518 35.37 18.5821 34.6405 19.3906C35.2165 21.9184 34.7153 24.0068 32.9875 25.7261C32.3368 26.3721 31.6215 26.998 30.8293 27.4514C27.8911 29.1326 24.9266 30.7717 21.9399 32.3646C19.3452 33.7489 16.797 35.1693 14.7601 37.354C12.5918 39.6792 11.7612 42.3655 12.3897 45.4651C13.1333 49.1404 15.4774 51.8227 18.06 54.3505C16.896 52.1718 16.1201 49.8867 15.7745 47.4311C15.3724 44.5663 16.2635 42.2913 18.5308 40.5078C21.0669 38.5136 24.0476 37.336 26.9393 35.9998C28.9945 35.0489 31.1042 34.2143 33.1391 33.2253C35.9298 31.8671 38.4517 30.1357 40.3129 27.5919C42.3902 24.7531 43.3137 21.6435 42.5862 18.1688C42.5741 18.1126 42.564 18.0564 42.5519 18.0003L42.5458 18.0023Z" fill="#7CB92E"/>
<path d="M18.7756 11.8618C19.1093 11.8618 19.3798 11.5933 19.3798 11.262C19.3798 10.9307 19.1093 10.6621 18.7756 10.6621C18.4419 10.6621 18.1714 10.9307 18.1714 11.262C18.1714 11.5933 18.4419 11.8618 18.7756 11.8618Z" fill="white"/>
<path d="M29.4959 11.8618C29.8296 11.8618 30.1002 11.5933 30.1002 11.262C30.1002 10.9307 29.8296 10.6621 29.4959 10.6621C29.1622 10.6621 28.8917 10.9307 28.8917 11.262C28.8917 11.5933 29.1622 11.8618 29.4959 11.8618Z" fill="white"/>
<path d="M34.5447 38.3666C33.496 36.9763 32.2006 35.8448 30.8083 34.8438C30.1435 35.1607 29.5029 35.4837 28.8461 35.7746C27.5306 36.3584 26.2373 37.0165 24.8773 37.4779C25.041 37.5561 25.2027 37.6324 25.3684 37.7126C25.4169 37.7367 25.4633 37.7608 25.5118 37.7848C25.6594 37.8571 25.8049 37.9293 25.9504 38.0015C25.9968 38.0236 26.0433 38.0476 26.0878 38.0697C26.2898 38.17 26.4879 38.2723 26.6879 38.3747C26.7061 38.3847 26.7243 38.3927 26.7425 38.4027L26.7263 38.3947C28.1793 39.147 29.5473 39.9595 30.7174 41.087C31.8005 42.1302 32.5603 43.344 32.7745 44.8506C32.9706 46.2369 32.8473 47.6192 32.4593 48.9433C31.9319 50.7428 31.2731 52.5043 30.7275 54.1112C31.0124 53.8103 31.455 53.3589 31.8814 52.8915C33.3767 51.2524 34.668 49.4769 35.4602 47.3905C36.6565 44.2388 36.6787 41.1934 34.5468 38.3686L34.5447 38.3666Z" fill="#7CB92E"/>
<path d="M26.69 38.3731C26.7021 38.3791 26.7143 38.3851 26.7264 38.3912L26.7426 38.3992C26.7244 38.3891 26.7062 38.3811 26.688 38.3711L26.69 38.3731Z" fill="#7CB92E"/>
<path d="M24.7633 48.8282C24.9007 48.9064 25.0381 48.9847 25.1715 49.0669L25.0199 52.8647C24.9128 52.9409 24.8057 53.0131 24.7026 53.0853C24.4864 53.2338 24.2843 53.3742 24.0984 53.5087C24.0095 53.4465 23.9166 53.3803 23.8196 53.3121C23.7165 53.2398 23.6054 53.1636 23.4942 53.0853L23.3022 49.1913C23.4154 49.1251 23.5326 49.0589 23.6559 48.9887L23.7307 48.9486C23.9368 48.8342 24.1469 48.7179 24.3571 48.6035C24.4703 48.6677 24.5834 48.7299 24.6966 48.7921L24.7673 48.8302L24.7633 48.8282Z" fill="#7CB92E"/>
<path d="M25.5691 39.0742L25.3105 45.5422C25.3105 45.5422 25.2943 45.5502 25.2862 45.5542C24.973 45.7047 24.6618 45.8632 24.3566 46.0257C23.9545 45.809 23.5463 45.5964 23.1321 45.3957C23.126 45.3937 23.1199 45.3897 23.1139 45.3877L22.8047 39.0742H25.5711H25.5691Z" fill="#7CB92E"/>
<path d="M25.2118 29.53C25.2118 29.9673 24.9248 30.3385 24.5267 30.4669C24.4317 30.499 24.3267 30.515 24.2216 30.515C24.0074 30.515 23.8093 30.4468 23.6477 30.3344C23.3951 30.1559 23.2294 29.863 23.2294 29.532C23.2294 29.4517 23.2395 29.3755 23.2577 29.2992C23.3607 28.8679 23.7528 28.5449 24.2216 28.5449C24.6904 28.5449 25.0764 28.8599 25.1835 29.2892C25.2037 29.3655 25.2138 29.4477 25.2138 29.532L25.2118 29.53Z" fill="#7CB92E"/>
<path d="M23.8506 55.7208C23.7759 55.769 23.7011 55.8171 23.6263 55.8652C23.5879 55.8913 23.5475 55.9154 23.5091 55.9415C23.4707 55.9676 23.4323 55.9916 23.3939 56.0177C23.2848 56.0879 23.1757 56.1602 23.0645 56.2344C22.4927 56.5835 22.327 56.9446 22.428 57.6207C22.4906 58.0199 22.6321 58.4573 22.8604 58.9508L23.2242 59.7332L22.8665 59.9117L22.3492 59.2617C21.6884 58.4292 21.3772 57.6909 21.3731 56.9366C21.359 56.3247 21.6662 55.7469 22.2845 55.2313C22.3815 55.147 22.4785 55.0628 22.5775 54.9785C22.7655 55.0889 22.9534 55.1972 23.1393 55.3035C23.2161 55.3477 23.2909 55.3918 23.3677 55.4359C23.4081 55.458 23.4505 55.4821 23.4909 55.5061C23.5334 55.5302 23.5738 55.5543 23.6162 55.5804C23.697 55.6265 23.7779 55.6747 23.8567 55.7208H23.8506Z" fill="#7CB92E"/>
<path d="M23.71 60.898L22.8654 59.911L23.223 59.7324L23.2392 59.7665L23.71 60.898Z" fill="#7CB92E"/>
<path d="M24.1009 46.1623C23.7877 46.3309 23.4785 46.5014 23.1754 46.6739C23.135 46.696 23.0946 46.718 23.0562 46.7401C23.0158 46.7622 22.9774 46.7843 22.939 46.8043C22.9309 46.8083 22.9249 46.8123 22.9188 46.8164L22.5106 47.0451C22.4015 47.1093 22.2863 47.1755 22.1711 47.2437C20.4878 46.5234 18.8045 45.5605 16.7291 44.128L16.4482 43.9355L18.2387 41.9453L18.463 42.2061C19.6391 43.5723 21.1243 44.6938 22.8784 45.5424C22.9188 45.5625 22.9612 45.5825 23.0016 45.6026C23.0097 45.6066 23.0178 45.6106 23.0239 45.6126C23.0582 45.6287 23.0926 45.6447 23.1249 45.6628C23.4543 45.8233 23.7776 45.9898 24.0989 46.1643L24.1009 46.1623Z" fill="#7CB92E"/>
<path d="M27.6328 53.2627C27.0144 53.8225 26.3274 54.2558 25.6423 54.659C25.4948 54.5387 25.3473 54.4223 25.2018 54.31C25.1634 54.2779 25.123 54.2478 25.0846 54.2197C25.0442 54.1876 25.0058 54.1595 24.9674 54.1314C24.7896 53.999 24.6137 53.8726 24.4379 53.7522C24.3975 53.7222 24.3531 53.6901 24.3046 53.656C24.4703 53.5356 24.6501 53.4112 24.8381 53.2828C24.8946 53.2447 24.9492 53.2066 25.0058 53.1664C25.0462 53.1384 25.0886 53.1103 25.1311 53.0802C25.1735 53.0521 25.2139 53.022 25.2564 52.9939C25.7232 52.6649 26.1859 52.3138 26.4809 51.9748C26.8366 51.4913 26.9296 50.745 26.7053 50.1571C26.5436 49.7078 26.0344 49.3145 25.418 48.9354C25.3796 48.9113 25.3392 48.8872 25.2988 48.8631C25.2604 48.8391 25.22 48.817 25.1816 48.7929C25.0826 48.7348 24.9815 48.6766 24.8805 48.6184L24.8118 48.5803C24.7431 48.5422 24.6744 48.504 24.6057 48.4659C24.8037 48.3596 25.0058 48.2533 25.2058 48.1509C25.2463 48.1289 25.2887 48.1088 25.3291 48.0888C25.3695 48.0667 25.412 48.0466 25.4524 48.0266C25.7191 47.8942 25.9879 47.7698 26.2587 47.6554C26.3496 47.6173 26.4405 47.5792 26.5315 47.5391C27.5803 48.2151 28.5139 49.0959 28.5906 50.5042C28.6674 51.5695 28.3098 52.6007 27.6348 53.2607L27.6328 53.2627Z" fill="#7CB92E"/>
<path d="M21.6219 51.33C21.6724 51.6269 21.7532 51.8596 21.8724 52.0442C22.028 52.2648 22.2261 52.4354 22.4908 52.65C22.6525 52.7844 22.9475 52.9991 23.2547 53.2138C23.2951 53.2439 23.3375 53.2719 23.3799 53.302C23.4224 53.3301 23.4628 53.3602 23.5052 53.3883C23.5638 53.4284 23.6204 53.4706 23.677 53.5087C23.7497 53.5588 23.8225 53.609 23.8892 53.6571C23.9256 53.6832 23.9599 53.7073 23.9922 53.7314C24.0286 53.7574 24.063 53.7815 24.0953 53.8056C24.1701 53.8578 24.2388 53.9079 24.2954 53.948C24.5116 54.0965 24.7298 54.255 24.9521 54.4255C24.9905 54.4536 25.0289 54.4837 25.0693 54.5158C25.1077 54.5439 25.1481 54.574 25.1865 54.6061C25.2633 54.6662 25.3401 54.7264 25.4169 54.7906C25.4492 54.8167 25.4836 54.8428 25.5179 54.8729C25.5503 54.899 25.5826 54.9251 25.6169 54.9531C25.7907 55.0956 25.9645 55.244 26.1383 55.3965C26.9951 56.0906 27.2477 56.9694 26.884 58.0005C26.7223 58.472 26.4657 58.9234 26.1019 59.3788C26.0898 59.3948 26.0777 59.4109 26.0635 59.4269L25.8776 59.6536L24.8733 60.9035L25.5503 59.12L25.5563 59.106C25.912 58.2874 26.2474 57.3686 25.8008 56.7627C25.6877 56.6363 25.5078 56.5079 25.3441 56.3956C25.2694 56.3454 25.1946 56.2973 25.1198 56.2471C25.0814 56.221 25.041 56.195 25.0026 56.1689C24.9622 56.1428 24.9218 56.1167 24.8834 56.0927C24.6894 55.9663 24.4954 55.8419 24.3055 55.7235C24.2671 55.6994 24.2287 55.6754 24.1923 55.6533C24.162 55.6352 24.1317 55.6152 24.1014 55.5971C24.0933 55.5931 24.0852 55.5871 24.0771 55.5831C23.9195 55.4868 23.7578 55.3925 23.5962 55.2982C23.5558 55.2741 23.5133 55.2501 23.4709 55.226C23.4305 55.2019 23.388 55.1778 23.3456 55.1538C23.3153 55.1357 23.2829 55.1196 23.2547 55.1016C23.093 55.0093 22.9293 54.915 22.7676 54.8187C22.7293 54.7967 22.6929 54.7746 22.6585 54.7545C22.6201 54.7325 22.5838 54.7104 22.5494 54.6883C21.9391 54.3252 21.3349 53.926 20.7913 53.4324L20.7812 53.4224C19.8456 52.4875 19.5526 50.9829 20.0477 49.6789C20.4316 48.6717 21.341 48.0257 22.1877 47.5182C22.2321 47.4921 22.2726 47.466 22.315 47.4419C22.3574 47.4159 22.3999 47.3918 22.4423 47.3677C22.5049 47.3316 22.5676 47.2955 22.6282 47.2594L22.9515 47.0788L23.0324 47.0327C23.0445 47.0247 23.0566 47.0186 23.0687 47.0126C23.1071 46.9906 23.1476 46.9685 23.1859 46.9464C23.5699 46.7318 23.9579 46.5151 24.354 46.3044C24.3964 46.2804 24.4388 46.2583 24.4792 46.2362C24.5217 46.2142 24.5641 46.1901 24.6066 46.168C24.8349 46.0496 25.0653 45.9313 25.2977 45.8189C25.328 45.8029 25.3583 45.7888 25.3886 45.7748C25.3987 45.7708 25.4108 45.7648 25.4209 45.7587C25.4613 45.7387 25.5038 45.7186 25.5442 45.6986C26.4051 45.2793 27.1628 44.8219 27.858 44.3023C28.6643 43.7004 29.3695 43.0464 29.9515 42.3683L30.1758 42.1055L31.9662 44.0956L31.6874 44.2882C29.7373 45.6364 28.1328 46.5672 26.5505 47.2714C26.5061 47.2915 26.4616 47.3115 26.4172 47.3296C26.3727 47.3497 26.3283 47.3697 26.2818 47.3878C26.2414 47.4038 26.203 47.4219 26.1626 47.4379C25.9281 47.5382 25.6937 47.6426 25.4613 47.7549C25.4209 47.775 25.3785 47.795 25.3381 47.8171C25.2977 47.8372 25.2552 47.8572 25.2148 47.8773C24.9238 48.0237 24.6369 48.1742 24.3519 48.3307C24.3095 48.3528 24.2691 48.3768 24.2267 48.3989C24.1862 48.421 24.1438 48.445 24.1014 48.4671C23.9357 48.5574 23.77 48.6497 23.6063 48.74L23.5315 48.7801C23.4466 48.8282 23.3638 48.8744 23.2829 48.9205C23.2425 48.9426 23.2041 48.9667 23.1657 48.9887C23.1253 49.0108 23.0869 49.0349 23.0485 49.0589C22.0341 49.6668 21.4299 50.2386 21.6178 51.332L21.6219 51.33Z" fill="#7CB92E"/>
<path d="M23.71 60.898L22.8654 59.911L23.223 59.7324H23.2251L23.2392 59.7665L23.71 60.898Z" fill="#7CB92E"/>
<path d="M24.0825 55.8594C23.937 55.9517 23.7895 56.046 23.642 56.1443L23.8582 60.5218L23.8764 60.8969V60.905L24.2361 64.6585L24.3149 65.6316L24.3371 65.3888L24.6968 60.9029V60.8969L24.7009 60.7685L24.715 60.4355L24.8767 56.3669C24.6079 56.1904 24.3412 56.0199 24.0825 55.8594Z" fill="#7CB92E"/>
</svg>
